HIERARCHY
ROOT hip
{
  OFFSET 0 0 0
  CHANNELS 6 Xposition Yposition Zposition Zrotation Yrotation Xrotation
  JOINT abdomen
  {
    OFFSET 0 20.6881 -0.73152
    CHANNELS 3 Zrotation Xrotation Yrotation
    JOINT chest
    {
      OFFSET 0 11.7043 -0.48768
      CHANNELS 3 Zrotation Xrotation Yrotation
      JOINT neck
      {
        OFFSET 0 22.1894 -2.19456
        CHANNELS 3 Zrotation Xrotation Yrotation
        JOINT head
        {
          OFFSET -0.24384 7.07133 1.2192
          CHANNELS 3 Zrotation Xrotation Yrotation
          JOINT leftEye
          {
            OFFSET 4.14528 8.04674 8.04672
            CHANNELS 3 Zrotation Xrotation Yrotation
            End Site
            {
              OFFSET 1 0 0
            }
          }
          JOINT rightEye
          {
            OFFSET -3.6576 8.04674 8.04672
            CHANNELS 3 Zrotation Xrotation Yrotation
            End Site
            {
              OFFSET 1 0 0
            }
          }
        }
      }
      JOINT rCollar
      {
        OFFSET -2.68224 19.2634 -4.8768
        CHANNELS 3 Zrotation Xrotation Yrotation
        JOINT rShldr
        {
          OFFSET -8.77824 -1.95073 1.46304
          CHANNELS 3 Zrotation Xrotation Yrotation
          JOINT rForeArm
          {
            OFFSET -28.1742 -1.7115 0.48768
            CHANNELS 3 Zrotation Xrotation Yrotation
            JOINT rHand
            {
              OFFSET -22.5879 0.773209 7.07136
              CHANNELS 3 Zrotation Xrotation Yrotation
              JOINT rThumb1
              {
                OFFSET -1.2192 -0.487915 3.41376
                CHANNELS 3 Zrotation Xrotation Yrotation
                JOINT rThumb2
                {
                  OFFSET -3.37035 -0.52449 3.41376
                  CHANNELS 3 Zrotation Xrotation Yrotation
                  End Site
                  {
                    OFFSET -1.78271 -1.18214 1.43049
                  }
                }
              }
              JOINT rIndex1
              {
                OFFSET -7.75947 0.938293 5.60832
                CHANNELS 3 Zrotation Xrotation Yrotation
                JOINT rIndex2
                {
                  OFFSET -2.54057 -0.884171 1.56538
                  CHANNELS 3 Zrotation Xrotation Yrotation
                  End Site
                  {
                    OFFSET -1.62519 -0.234802 1.16502
                  }
                }
              }
              JOINT rMid1
              {
                OFFSET -8.24714 1.18213 3.41376
                CHANNELS 3 Zrotation Xrotation Yrotation
                JOINT rMid2
                {
                  OFFSET -3.10165 -0.590103 1.0647
                  CHANNELS 3 Zrotation Xrotation Yrotation
                  End Site
                  {
                    OFFSET -2.48547 -0.328903 0.83742
                  }
                }
              }
              JOINT rRing1
              {
                OFFSET -8.82822 0.546677 1.51678
                CHANNELS 3 Zrotation Xrotation Yrotation
                JOINT rRing2
                {
                  OFFSET -2.60934 -0.819778 -0.0198488
                  CHANNELS 3 Zrotation Xrotation Yrotation
                  End Site
                  {
                    OFFSET -2.33842 -0.294052 0.168128
                  }
                }
              }
              JOINT rPinky1
              {
                OFFSET -8.27202 -0.0477905 -0.4584
                CHANNELS 3 Zrotation Xrotation Yrotation
                JOINT rPinky2
                {
                  OFFSET -1.82734 -0.647385 -0.700984
                  CHANNELS 3 Zrotation Xrotation Yrotation
                  End Site
                  {
                    OFFSET -1.69225 -0.51767 -0.607171
                  }
                }
              }
            }
          }
        }
      }
      JOINT lCollar
      {
        OFFSET 2.68224 19.2634 -4.8768
        CHANNELS 3 Zrotation Xrotation Yrotation
        JOINT lShldr
        {
          OFFSET 8.77824 -1.95073 1.46304
          CHANNELS 3 Zrotation Xrotation Yrotation
          JOINT lForeArm
          {
            OFFSET 28.1742 -1.7115 0.48768
            CHANNELS 3 Zrotation Xrotation Yrotation
            JOINT lHand
            {
              OFFSET 22.5879 0.773209 7.07136
              CHANNELS 3 Zrotation Xrotation Yrotation
              JOINT lThumb1
              {
                OFFSET 1.2192 -0.487915 3.41376
                CHANNELS 3 Zrotation Xrotation Yrotation
                JOINT lThumb2
                {
                  OFFSET 3.37035 -0.52449 3.41376
                  CHANNELS 3 Zrotation Xrotation Yrotation
                  End Site
                  {
                    OFFSET 1.78271 -1.18214 1.43049
                  }
                }
              }
              JOINT lIndex1
              {
                OFFSET 7.75947 0.938293 5.60832
                CHANNELS 3 Zrotation Xrotation Yrotation
                JOINT lIndex2
                {
                  OFFSET 2.54057 -0.884171 1.56538
                  CHANNELS 3 Zrotation Xrotation Yrotation
                  End Site
                  {
                    OFFSET 1.62519 -0.234802 1.16502
                  }
                }
              }
              JOINT lMid1
              {
                OFFSET 8.24714 1.18213 3.41376
                CHANNELS 3 Zrotation Xrotation Yrotation
                JOINT lMid2
                {
                  OFFSET 3.10165 -0.590103 1.0647
                  CHANNELS 3 Zrotation Xrotation Yrotation
                  End Site
                  {
                    OFFSET 2.48547 -0.328903 0.83742
                  }
                }
              }
              JOINT lRing1
              {
                OFFSET 8.82822 0.546677 1.51678
                CHANNELS 3 Zrotation Xrotation Yrotation
                JOINT lRing2
                {
                  OFFSET 2.60934 -0.819778 -0.0198488
                  CHANNELS 3 Zrotation Xrotation Yrotation
                  End Site
                  {
                    OFFSET 2.33842 -0.294052 0.168128
                  }
                }
              }
              JOINT lPinky1
              {
                OFFSET 8.27202 -0.0477905 -0.4584
                CHANNELS 3 Zrotation Xrotation Yrotation
                JOINT lPinky2
                {
                  OFFSET 1.82734 -0.647385 -0.700984
                  CHANNELS 3 Zrotation Xrotation Yrotation
                  End Site
                  {
                    OFFSET 1.69225 -0.51767 -0.607171
                  }
                }
              }
            }
          }
        }
      }
    }
  }
  JOINT rButtock
  {
    OFFSET -8.77824 4.35084 1.2192
    CHANNELS 3 Zrotation Xrotation Yrotation
    JOINT rThigh
    {
      OFFSET 0 -1.70687 -2.19456
      CHANNELS 3 Zrotation Xrotation Yrotation
      JOINT rShin
      {
        OFFSET 0 -36.8199 0.73152
        CHANNELS 3 Zrotation Xrotation Yrotation
        JOINT rFoot
        {
          OFFSET 0.73152 -45.1104 -5.12064
          CHANNELS 3 Zrotation Xrotation Yrotation
          End Site
          {
            OFFSET -1.1221 -3.69964 12.103
          }
        }
      }
    }
  }
  JOINT lButtock
  {
    OFFSET 8.77824 4.35084 1.2192
    CHANNELS 3 Zrotation Xrotation Yrotation
    JOINT lThigh
    {
      OFFSET 0 -1.70687 -2.19456
      CHANNELS 3 Zrotation Xrotation Yrotation
      JOINT lShin
      {
        OFFSET 0 -36.8199 0.73152
        CHANNELS 3 Zrotation Xrotation Yrotation
        JOINT lFoot
        {
          OFFSET -0.73152 -45.1104 -5.12064
          CHANNELS 3 Zrotation Xrotation Yrotation
          End Site
          {
            OFFSET 1.1221 -3.69964 12.103
          }
        }
      }
    }
  }
}
MOTION
Frames:	4
Frame Time:	0.03333
-18.83289580605924 2.5737202167510986 1.6967014539986849 -165.59282541275024 -77.83538281917572 162.75054216384888 7.904260084033012 15.31025692820549 15.479012131690979 -0.9967051818966866 -12.64416128396988 3.7113115936517715 0.8482303284108639 11.415073871612549 2.8639833256602287 7.863043919205666 -21.539369523525238 19.513789415359497 -1.1968300770968199 -0.7559380307793617 -3.598877750337124 0.7920866645872593 0.18403088673949242 0.13813816476613283 -1.4283963292837143 -0.08345609530806541 1.2812860496342182 57.913581132888794 76.99925780296326 15.12980192899704 -28.425262570381165 -45.39607107639313 99.65398907661438 -42.67075628042221 -71.58340036869049 -49.52682852745056 0.5289993435144424 0.13697328977286816 3.7584735453128815 -2.6412315666675568 0.17737643094733357 -1.604146733880043 0.1508631929755211 -1.6011547297239304 -0.03633823245763779 8.600479066371918 6.038558408617973 0.5931704817339778 1.8878409639000893 0.897124819457531 -2.056922223418951 2.9622162133455276 0.4027058556675911 -0.8087163604795933 0.8385074883699417 1.1841501854360104 -2.712401133030653 10.9110988676548 -0.9448541421443224 -0.2582380548119545 0.9194307401776314 -0.4895554482936859 -0.28022906742990017 4.232744760811329 -2.038764338940382 2.921213284134865 -0.8220124058425426 -0.3858589008450508 0.1845843018963933 -64.82099890708923 18.53060021996498 -41.38454854488373 26.093720197677612 -42.087874710559845 -77.83811867237091 9.65022660791874 -11.643158197402954 8.083113133907318 -1.3659211434423923 -2.6226517371833324 -4.81085367500782 -0.019300337880849838 -2.165307439863682 4.759079664945602 -1.439463123679161 0.1954440213739872 -1.8820413574576378 -8.410034850239754 6.045139208436012 -0.4259259067475796 1.1969399638473988 -0.9925544634461403 0.30908603221178055 -3.96806001663208 0.274887029081583 0.8666482195258141 5.594596490263939 1.3457291387021542 -0.7758586294949055 -10.453636050224304 0.33858194947242737 1.2120290659368038 -0.535063985735178 1.5575413405895233 -0.8893741574138403 -3.303813301026821 -2.5305304303765297 -3.865373656153679 -1.247342610731721 0.9003490023314953 0.999409519135952 -15.881653279066086 -41.97595149278641 -31.1893031001091 -10.763917341828346 84.96204972267151 11.466672867536545 -17.00730264186859 -26.18942677974701 -27.977180778980255 -0.7020496018230915 2.3444823548197746 0.9079119097441435 81.02565586566925 -51.35029077529907 79.53304946422577 -1.7331562936306 82.12642908096313 -7.194886207580566 2.286708578467369 -2.392997145652771 -7.182603031396866
-18.966376399621367 2.3660197257995605 1.5635146666318178 -162.51832723617554 -75.54030239582062 162.63299703598022 9.101400375366211 15.491458922624588 14.549119770526886 -1.1390842124819756 -12.524564266204834 4.448605254292488 0.5877583287656307 11.464382261037827 2.4778109416365623 7.946768403053284 -20.551992058753967 17.334481179714203 -1.6908977553248405 -0.9225182980298996 -3.31765316426754 0.766264870762825 0.5306396819651127 0.004520905204117298 -1.8223964050412178 -0.046857353299856186 1.8305224925279617 58.55030536651611 75.42100846767426 12.702035307884216 -28.094910979270935 -45.95809578895569 99.78697299957275 -40.21216839551926 -69.09058749675751 -48.497520089149475 0.5283126980066299 0.048491908237338066 4.0687233209609985 -2.650786265730858 0.6816365662962198 -1.8236255273222923 -0.2022031880915165 -1.2269926071166992 -0.19449803978204727 8.411890268325806 6.224141791462898 0.6177702778950334 1.5114769153296947 0.9403150901198387 -2.3730393312871456 2.736582923680544 0.3643690422177315 -0.7548076473176479 1.1380968242883682 1.3385357894003391 -2.95150950551033 10.651503279805183 -1.0698504466563463 -0.5429136380553246 1.1688607558608055 -0.8787097781896591 -0.09560423903167248 4.201185218989849 -1.9040839187800884 2.872873842716217 -0.9628136269748211 -0.39376940578222275 0.6189546408131719 -62.73260414600372 16.983752846717834 -40.54800510406494 24.86479640007019 -41.686463356018066 -77.78820276260376 11.015200093388557 -13.163672983646393 8.44679519534111 -2.0331363938748837 -2.8513705730438232 -4.5006900653243065 -0.07744191214442253 -1.9894909858703613 4.872837513685226 -1.850453820079565 0.6417994759976864 -1.5826937556266785 -8.290297016501427 6.297761723399162 -0.6918558664619923 0.909561887383461 -1.7085453495383263 -0.297289676964283 -3.6439140513539314 0.2766158804297447 1.2792225927114487 5.2069877833127975 1.3266103528439999 -0.7925280556082726 -10.50312615931034 0.4949294216930866 1.2861552648246288 -0.5766342021524906 1.6942848823964596 -0.7694076653569937 -3.117269016802311 -2.40452628582716 -4.564283564686775 -1.2097708974033594 0.7282091863453388 1.2518144398927689 -16.57826855778694 -40.92309594154358 -32.07514554262161 -12.350443303585052 83.43942403793335 12.365470379590988 -16.60398155450821 -24.606910049915314 -26.613304316997528 -1.0142887383699417 2.4143297597765923 0.44042098335921764 79.75957810878754 -50.383429527282715 79.57051992416382 -3.2783272862434387 81.96141421794891 -6.4900365471839905 3.057175800204277 -4.007789231836796 -7.531499415636063
-19.12206836603582 2.2758779525756836 1.478182042017579 -166.40993356704712 -77.73480534553528 170.9709119796753 8.61048772931099 14.962248355150223 13.262843638658524 -1.4571315050125122 -12.081732898950577 4.964042007923126 -0.6501069478690624 12.727964222431183 0.6367332860827446 9.340096190571785 -19.847770035266876 13.97181048989296 -1.8363505974411964 -0.20121127367019653 -3.8431723415851593 0.3993373364210129 0.11214382946491241 0.4818156408146024 -1.7896563559770584 -0.10898217558860779 2.607293240725994 56.48119568824768 76.54635608196259 11.83238536119461 -27.568253874778748 -44.92335855960846 99.51092004776001 -40.3774756193161 -69.95525658130646 -50.90573608875275 1.3171520456671715 0.7514219451695681 3.874923326075077 -2.7270998060703278 0.7661709096282721 -1.9047965481877327 -0.5275722406804562 -1.2208190001547337 -0.4999091103672981 8.460335657000542 6.406389847397804 1.1200569570064545 1.4692274294793606 1.4496856927871704 -2.2289121709764004 2.83719040453434 0.2994156628847122 -0.7954784855246544 2.120215818285942 0.8589834719896317 -3.2744427770376205 10.795739740133286 -1.3583890814334154 -0.9270638041198254 2.109132595360279 -1.0613494366407394 -0.10882384143769741 4.331138581037521 -1.4876149781048298 4.253864139318466 -0.4312483314424753 -1.1260932683944702 0.34743328113108873 -62.130593061447144 15.309153199195862 -35.203333497047424 25.07650852203369 -44.41506654024124 -81.60731971263885 10.902537927031517 -14.58995908498764 10.144453793764114 -2.607390135526657 -3.5750017315149307 -4.606889113783836 0.10814180597662926 -1.950530894100666 4.883625358343124 -1.7315516620874405 0.8322250843048096 -1.6715902090072632 -8.519166558980942 6.469569280743599 -0.45564696192741394 0.24623315781354904 -3.1455207243561745 -1.3663107343018055 -3.5025187209248543 -0.38779160007834435 1.7070993036031723 3.4652142226696014 0.8180762641131878 -1.0330181010067463 -10.554556846618652 0.9111249446868896 0.8996355347335339 -0.3836807794868946 1.7208498157560825 -0.34075495786964893 -2.7952339500188828 -2.187066189944744 -4.50151652097702 -1.2475541699677706 0.06504604127258062 1.9005868211388588 -15.549129098653793 -40.59305280447006 -31.49866908788681 -14.338866770267487 82.87921786308289 13.222644031047821 -15.793139040470123 -23.57438564300537 -24.21715557575226 -0.9667988866567612 2.5720523670315742 -0.5329015385359526 80.82080483436584 -48.69159400463104 82.37540245056152 -2.8755252063274384 80.88000118732452 -6.5752167999744415 4.604382589459419 -5.8961378037929535 -7.524185031652451
-19.279068564996123 2.1126251220703125 1.450255375355482 -163.75932097434998 -76.24116897583008 169.03461456298828 6.974977254867554 14.710972309112549 13.090923428535461 -1.535581760108471 -11.503093242645264 5.53740106523037 -2.012121118605137 13.432415574789047 -0.3488420695066452 9.716478511691093 -18.06424856185913 13.473788648843765 -2.0846574380993843 0.04538029432296753 -3.6756375432014465 -0.03598099574446678 0.6963572837412357 0.258222590200603 -1.8058389611542225 -0.3050965815782547 2.653596717864275 56.13020181655884 76.83321297168732 10.366222858428955 -25.95058411359787 -44.893044233322144 98.09767484664917 -40.60792028903961 -71.38174653053284 -50.819626450538635 1.8334581702947617 0.9415602218359709 3.5351471230387688 -2.5280530750751495 1.482698991894722 -2.013687863945961 -0.2937126159667969 -1.1260837130248547 -0.5258128792047501 8.16039226949215 6.510633900761604 1.3528234139084816 1.3801985420286655 1.146073378622532 -1.612063441425562 2.7753812447190285 0.003941841423511505 -0.910178292542696 2.3415765166282654 0.6284095533192158 -2.8749559074640274 10.530482679605484 -1.405928386375308 -1.0488979518413544 2.1640169620513916 -1.2972718477249146 -0.08487791754305363 4.125046022236347 -0.9068181551992893 4.98604416847229 0.11469880118966103 -1.2026813998818398 0.8225126378238201 -60.95764696598053 11.9413822889328 -31.935158371925354 25.602216124534607 -45.090250968933105 -83.41970443725586 10.624378100037575 -12.072190940380096 10.572950094938278 -3.4039384871721268 -3.732038363814354 -3.727574162185192 0.11204894632101059 -1.7845772579312325 5.073073133826256 -2.2162918746471405 0.5866086669266224 -1.6415256634354591 -8.571959808468819 6.631324589252472 -0.271371491253376 -0.04651939496397972 -3.8354676961898804 -1.5613901428878307 -3.4133275598287582 -0.6284709088504314 2.435561791062355 1.5406548231840134 0.3314222954213619 -0.8222460933029652 -10.184579640626907 1.3547698594629765 0.446732472628355 -0.11931035667657852 1.614284310489893 0.07569839246571064 -2.5616883113980293 -1.742805540561676 -4.550821557641029 -1.504291445016861 -0.1267547020688653 2.21541378647089 -16.67509764432907 -40.05569905042648 -29.23715651035309 -16.805808395147324 80.6051230430603 14.175144731998444 -14.780284613370895 -22.86458194255829 -23.315174281597137 -1.2692990899085999 2.9220088943839073 -1.4292459189891815 81.81872069835663 -46.097490191459656 83.18232893943787 -1.020953357219696 78.59894335269928 -8.060606718063354 5.0063736364245415 -6.9546568393707275 -7.222272902727127
